<svg xmlns="http://www.w3.org/2000/svg" width="67.864" height="70" viewBox="0 0 67.864 70">
  <g id="piggy-bank" transform="translate(-7.812)">
    <g id="Group_67498" data-name="Group 67498" transform="translate(7.812)">
      <path id="Path_22" data-name="Path 22" d="M357.744,274.6a1.025,1.025,0,0,0,2.05,0,1.58,1.58,0,1,1,3.16,0,1.025,1.025,0,0,0,2.05,0,3.63,3.63,0,1,0-7.261,0Z" transform="translate(-309.912 -233.93)"/>
      <path id="Path_23" data-name="Path 23" d="M235.151,51.51a1.025,1.025,0,1,0-1.122,1.716,6.019,6.019,0,0,0,3.262,1.15V55.43a1.025,1.025,0,1,0,2.05,0V54.294c4.391-.881,5.617-7.293.864-8.972-.284-.1-.575-.206-.864-.315V40.339a3.007,3.007,0,0,1,1.181.574A1.025,1.025,0,0,0,241.9,39.4a5.18,5.18,0,0,0-2.564-1.149v-.941a1.025,1.025,0,1,0-2.05,0v1.019c-.142.032-.286.068-.433.112a4.092,4.092,0,0,0-2.8,3.21,3.606,3.606,0,0,0,1.182,3.553,9.631,9.631,0,0,0,2.055,1.179v5.94A4.006,4.006,0,0,1,235.151,51.51Zm4.189-4.321.181.065c2.545.9,1.936,4.114-.181,4.9Zm-2.84-3.6a1.584,1.584,0,0,1-.432-1.56,2.093,2.093,0,0,1,1.222-1.571V44.1a5.858,5.858,0,0,1-.79-.509Z" transform="translate(-202.706 -31.323)" fill="#4bcc8c"/>
      <path id="Path_24" data-name="Path 24" d="M72.1,37.751H70.088a.476.476,0,0,1-.443-.3,20.174,20.174,0,0,0-3.6-5.775l1.439-4.8A2.627,2.627,0,0,0,63.563,23.9l-4.034,2.543A29.536,29.536,0,0,0,55.2,24.433,15.047,15.047,0,0,0,34.861,2.683a1.025,1.025,0,1,0,1.17,1.684A13,13,0,1,1,48.54,27a29.128,29.128,0,0,0-10.067.058A13,13,0,0,1,32.789,7.595a1.025,1.025,0,1,0-1.679-1.177A15.048,15.048,0,0,0,31.8,24.584c-9.062,3.489-14.944,10.634-15.322,18.67h-1.4v-2.7a3.393,3.393,0,0,0-3.389-3.389A3.884,3.884,0,0,0,7.812,41.04,4.269,4.269,0,0,0,12.076,45.3h.8A3.838,3.838,0,0,1,9.2,48.067a1.025,1.025,0,1,0,0,2.05A5.891,5.891,0,0,0,14.984,45.3H16.5c.467,6.794,4.832,12.441,10.622,15.973a.277.277,0,0,1,.135.237v4.15a4.327,4.327,0,0,0,4.322,4.322H33.9a4.327,4.327,0,0,0,4.322-4.322v-.035a.267.267,0,0,1,.1-.208.285.285,0,0,1,.232-.065,34.675,34.675,0,0,0,10.308,0,.285.285,0,0,1,.232.065.267.267,0,0,1,.1.208A4.344,4.344,0,0,0,53.5,69.985c2.349,0,3.851.251,5.367-1.26a4.294,4.294,0,0,0,1.272-3.062V61.514a.276.276,0,0,1,.134-.237,25.917,25.917,0,0,0,3.974-2.969,1.025,1.025,0,0,0-1.382-1.514,23.859,23.859,0,0,1-3.659,2.733,2.342,2.342,0,0,0-1.117,1.988v4.149a2.271,2.271,0,0,1-2.28,2.272c-.53,0-1.029,0-2.309,0a2.291,2.291,0,0,1-2.27-2.307,2.331,2.331,0,0,0-2.686-2.3,32.615,32.615,0,0,1-9.692,0,2.331,2.331,0,0,0-2.686,2.3v.035A2.274,2.274,0,0,1,33.9,67.935H31.582a2.274,2.274,0,0,1-2.272-2.272v-4.15a2.343,2.343,0,0,0-1.118-1.988c-6.153-3.753-9.682-9.384-9.682-15.447,0-7.736,5.8-14.7,14.83-17.877a14.972,14.972,0,0,0,2.087,1.583,25.519,25.519,0,0,0-2.67.965,1.025,1.025,0,0,0,.805,1.886,26.659,26.659,0,0,1,19.8-.174,1.025,1.025,0,1,0,.762-1.9,26.482,26.482,0,0,0-2.534-.866,14.987,14.987,0,0,0,2.085-1.62A28.021,28.021,0,0,1,57.54,27.7l-.9.565A1.025,1.025,0,1,0,57.737,30l6.919-4.361a.577.577,0,0,1,.86.654l-2.378,7.927a1.025,1.025,0,0,0,1.964.589l.23-.768a17.7,17.7,0,0,1,2.411,4.179A2.518,2.518,0,0,0,70.088,39.8H72.1a1.533,1.533,0,0,1,1.531,1.531v6.151A1.533,1.533,0,0,1,72.1,49.014H69.808a2.53,2.53,0,0,0-2.307,1.5,17.738,17.738,0,0,1-1.618,2.859,1.025,1.025,0,1,0,1.685,1.168,19.776,19.776,0,0,0,1.8-3.19.477.477,0,0,1,.435-.283H72.1a3.585,3.585,0,0,0,3.581-3.581V41.333A3.585,3.585,0,0,0,72.1,37.751Zm-59.065,5.5h-.954A2.216,2.216,0,0,1,9.862,41.04a1.831,1.831,0,0,1,1.829-1.829A1.341,1.341,0,0,1,13.03,40.55Z" transform="translate(-7.812 0)"/>
      <path id="Path_25" data-name="Path 25" d="M55.2,24.433A15.047,15.047,0,0,0,34.861,2.683a1.025,1.025,0,1,0,1.17,1.684A13,13,0,1,1,48.54,27a29.77,29.77,0,0,0-10.067.058A13,13,0,0,1,32.789,7.595a1.025,1.025,0,1,0-1.679-1.177A15.048,15.048,0,0,0,31.8,24.584,14.308,14.308,0,0,0,33.34,26.2a14.972,14.972,0,0,0,2.087,1.583,29.6,29.6,0,0,1,16.166-.093,14.987,14.987,0,0,0,2.085-1.62A6.679,6.679,0,0,0,55.2,24.433Z" transform="translate(-7.812)" fill="#4bcc8c"/>
    </g>
  </g>
</svg>
