<svg xmlns="http://www.w3.org/2000/svg" width="50.78" height="50" viewBox="0 0 50.78 50">
  <g id="house" transform="translate(-0.001)">
    <path id="Path_19" data-name="Path 19" d="M133.276,111.867h-7.525a1.241,1.241,0,0,0-1.24,1.24V125.4a1.241,1.241,0,0,0,1.24,1.24h7.525a1.241,1.241,0,0,0,1.24-1.24V113.107A1.241,1.241,0,0,0,133.276,111.867Zm-4.506,13.284H126v-3.042h2.77Zm0-4.53H126v-2.737h2.77Zm0-4.224H126v-3.042h2.77Zm4.259,8.754h-2.771v-3.042h2.771Zm0-4.53h-2.771v-2.737h2.771Zm0-4.224h-2.771v-3.042h2.771Zm0,0" transform="translate(-112.162 -100.772)" fill="#4bcc8c"/>
    <path id="Path_20" data-name="Path 20" d="M306.717,411.3a.744.744,0,0,0-.744.744v1.786a.744.744,0,1,0,1.488,0v-1.786A.744.744,0,0,0,306.717,411.3Zm0,0" transform="translate(-275.626 -370.504)" fill="#4bcc8c"/>
    <path id="Path_21" data-name="Path 21" d="M50.774,33.28a.987.987,0,0,0-.376-.655L34.639,20.432a1.974,1.974,0,0,0-2.417,0l-2.383,1.844V20.14a.744.744,0,1,0-1.488,0v3.287l-11.887,9.2a.993.993,0,0,0-.18,1.389l1.206,1.569a.991.991,0,0,0,1.39.179L33.431,24.5l11,8.509v15.5H38.437V47.117a.744.744,0,1,0-1.488,0v1.395H29.91v-11.4H36.95v6.5a.744.744,0,1,0,1.488,0V36.868a1.241,1.241,0,0,0-1.24-1.24H29.663a1.241,1.241,0,0,0-1.24,1.24V48.512H22.77V46.483a1.241,1.241,0,0,0-1.24-1.24h-.712a4.664,4.664,0,0,0-8.157-3.9,3.491,3.491,0,0,0-1.835-.072,4.609,4.609,0,0,0-3.956-2.28,4.457,4.457,0,0,0-.516.031v-24.9l11-8.51,11,8.51v2.549a.744.744,0,1,0,1.488,0v-1.4l2.064,1.6a.99.99,0,0,0,1.39-.18l.008-.011,1.155-1.561.007-.009a.941.941,0,0,0,.232-.721.984.984,0,0,0-.376-.655L18.561,1.537a1.974,1.974,0,0,0-2.417,0L11.817,4.885V3.948a1.241,1.241,0,0,0,1.032-1.221V1.24A1.241,1.241,0,0,0,11.609,0H5.581a1.241,1.241,0,0,0-1.24,1.24V2.727A1.241,1.241,0,0,0,5.374,3.948V9.871L.387,13.729a.994.994,0,0,0-.378.658.984.984,0,0,0,.2.731l1.206,1.569a.983.983,0,0,0,.785.386,1,1,0,0,0,.606-.207l2.064-1.6V39.456a4.607,4.607,0,0,0-2.428,2.972A2.962,2.962,0,0,0,.547,45.187a3,3,0,0,0,.028.4,1.234,1.234,0,0,0-.383.894V48.76A1.241,1.241,0,0,0,1.431,50H48.072a.744.744,0,1,0,0-1.488H45.916V34.164l2.065,1.6a1,1,0,0,0,.605.207.982.982,0,0,0,.785-.387l.008-.01,1.156-1.561.008-.01A.942.942,0,0,0,50.774,33.28ZM16.241,41.147a3.179,3.179,0,0,1,3.046,4.1H15.044a3.466,3.466,0,0,0-1.07-3.138A3.192,3.192,0,0,1,16.241,41.147ZM5.829,1.488h5.532v.991H5.829Zm4.5,2.479v2.07L6.862,8.72V3.966ZM2.287,15.385l-.6-.781L17.054,2.714a.487.487,0,0,1,.6,0L33,14.588l-.586.792-14.6-11.3a.744.744,0,0,0-.91,0Zm19,33.127H1.679V46.731H8.531a.744.744,0,1,0,0-1.488H2.036c0-.019,0-.038,0-.057a1.469,1.469,0,0,1,1.186-1.441.744.744,0,0,0,.595-.625,3.087,3.087,0,0,1,5.935-.668.743.743,0,0,0,1.012.4,1.991,1.991,0,0,1,2.755,2.385H12.1a.744.744,0,1,0,0,1.488h9.182ZM48.489,34.274l-14.6-11.3a.743.743,0,0,0-.91,0l-14.61,11.3-.6-.781,15.367-11.89a.486.486,0,0,1,.6,0L49.075,33.483Zm0,0" transform="translate(0)"/>
    <path id="Path_26" data-name="Path 26" d="M38.437,48.512V47.117a.744.744,0,1,0-1.488,0v1.395H29.91v-11.4H36.95v6.5a.744.744,0,1,0,1.488,0V36.868a1.241,1.241,0,0,0-1.24-1.24H29.663a1.241,1.241,0,0,0-1.24,1.24V48.512Z" fill="#4bcc8c"/>
  </g>
</svg>
